:FULLY-SPECIFIED
:FORCE-ALL-JOINTS-BE-3DOF
:DEGREES
227
root 8.68082 16.1695 -5.28252 10.1549 -3.92341 -7.56185
lfemur -48.3424 5.77753 -13.1455
ltibia 28.6819 0 0
lfoot -6.33909 11.7191 0
ltoes -12.9261 0 0
rfemur 17.7622 7.06705 31.1792
rtibia -3.18053e-15 0 0
rfoot -10.4039 7.65815 0
rtoes -13.0164 0 0
lowerback -8.87017 2.88861 3.9952
upperback -1.5189 3.32022 3.79003
thorax 3.39081 1.67581 2.0813
lowerneck -16.1828 -5.95128 -13.8603
upperneck 15.3354 -7.6822 14.9744
head 8.59085 -3.07072 6.45879
lclavicle 9.05297e-15 -1.86858e-14 0
lhumerus -51.5039 -7.65306 93.45
lradius 23.5596 0 0
lwrist 1.37569 0 0
lhand -9.07458 -24.9437 0
lfingers 7.12502 0 0
lthumb 16.8746 4.34289 0
rclavicle 9.05297e-15 -1.86858e-14 0
rhumerus -40.8157 13.4912 -86.9154
rradius 51.4026 0 0
rwrist -24.9517 0 0
rhand -32.0108 -31.6954 0
rfingers 7.12502 0 0
rthumb -5.25916 -61.6101 0
228
root 8.70698 16.153 -5.10848 10.3763 -4.09782 -7.61313
lfemur -48.8739 6.60319 -13.6461
ltibia 29.8937 0 0
lfoot -4.20062 11.4247 0
ltoes -13.3927 0 0
rfemur 18.1671 7.1105 31.0462
rtibia -7.95137e-15 0 0
rfoot -9.9619 7.7289 0
rtoes -13.2638 0 0
lowerback -9.00939 2.90229 4.02153
upperback -1.60177 3.3324 3.73413
thorax 3.38663 1.6817 2.01478
lowerneck -16.3064 -5.93616 -13.812
upperneck 15.3982 -7.67352 15.0177
head 8.63294 -3.05458 6.4683
lclavicle 1.73729e-14 -1.37161e-14 0
lhumerus -51.6079 -7.60318 93.3526
lradius 23.534 0 0
lwrist 1.85572 0 0
lhand -8.95722 -24.5325 0
lfingers 7.12502 0 0
lthumb 16.9876 4.74445 0
rclavicle 1.73729e-14 -1.37161e-14 0
rhumerus -41.078 13.3901 -87.1682
rradius 51.1106 0 0
rwrist -24.8074 0 0
rhand -32.043 -31.8454 0
rfingers 7.12502 0 0
rthumb -5.29023 -61.7594 0
229
root 8.73313 16.1365 -4.93444 10.5977 -4.27223 -7.66441
lfemur -49.4055 7.42885 -14.1467
ltibia 31.1055 0 0
lfoot -2.06214 11.1303 0
ltoes -13.8593 0 0
rfemur 18.572 7.15394 30.9132
rtibia -1.27222e-14 0 0
rfoot -9.51988 7.79964 0
rtoes -13.5111 0 0
lowerback -9.14861 2.91597 4.04785
upperback -1.68464 3.34458 3.67824
thorax 3.38246 1.68759 1.94825
lowerneck -16.43 -5.92104 -13.7637
upperneck 15.4611 -7.66484 15.0611
head 8.67503 -3.03845 6.47781
lclavicle 2.56929e-14 -8.74653e-15 0
lhumerus -51.7119 -7.55329 93.2552
lradius 23.5084 0 0
lwrist 2.33574 0 0
lhand -8.83987 -24.1214 0
lfingers 7.12502 0 0
lthumb 17.1006 5.14601 0
rclavicle 2.56929e-14 -8.74653e-15 0
rhumerus -41.3402 13.2889 -87.421
rradius 50.8185 0 0
rwrist -24.6632 0 0
rhand -32.0752 -31.9954 0
rfingers 7.12502 0 0
rthumb -5.32131 -61.9086 0
230
root 8.76314 16.1288 -4.75008 10.6258 -4.2359 -7.44398
lfemur -49.6234 7.65635 -14.6702
ltibia 32.424 0 0
lfoot -1.73683 10.4622 0
ltoes -12.665 0 0
rfemur 19.1149 6.93088 30.4972
rtibia -2.17338e-14 0 0
rfoot -8.59804 7.66421 0
rtoes -14.1251 0 0
lowerback -9.14787 2.82202 3.82659
upperback -1.76873 3.24792 3.59474
thorax 3.28859 1.63746 1.97013
lowerneck -16.502 -5.9257 -13.797
upperneck 15.5179 -7.66708 15.0922
head 8.71042 -3.03553 6.49594
lclavicle 2.25786e-14 -6.36111e-15 0
lhumerus -51.6082 -7.3794 92.9598
lradius 23.1894 0 0
lwrist 1.86418 0 0
lhand -8.55103 -24.1381 0
lfingers 7.12502 0 0
lthumb 17.3785 5.1038 0
rclavicle 2.25786e-14 -6.36111e-15 0
rhumerus -41.851 12.9822 -87.5005
rradius 50.5924 0 0
rwrist -24.4776 0 0
rhand -31.5531 -32.0258 0
rfingers 7.12502 0 0
rthumb -4.81708 -61.948 0
231
root 8.79316 16.1211 -4.56572 10.6539 -4.19956 -7.22355
lfemur -49.8414 7.88386 -15.1937
ltibia 33.7424 0 0
lfoot -1.41151 9.79416 0
ltoes -11.4707 0 0
rfemur 19.6578 6.70783 30.0813
rtibia -3.07453e-14 0 0
rfoot -7.6762 7.52877 0
rtoes -14.739 0 0
lowerback -9.14713 2.72806 3.60533
upperback -1.85282 3.15126 3.51123
thorax 3.19471 1.58733 1.99202
lowerneck -16.5739 -5.93035 -13.8303
upperneck 15.5746 -7.66932 15.1232
head 8.74581 -3.0326 6.51406
lclavicle 1.94643e-14 -3.9757e-15 0
lhumerus -51.5045 -7.20551 92.6644
lradius 22.8704 0 0
lwrist 1.39262 0 0
lhand -8.26219 -24.1549 0
lfingers 7.12502 0 0
lthumb 17.6564 5.06159 0
rclavicle 1.94643e-14 -3.9757e-15 0
rhumerus -42.3618 12.6755 -87.5801
rradius 50.3662 0 0
rwrist -24.292 0 0
rhand -31.0309 -32.0562 0
rfingers 7.12502 0 0
rthumb -4.31286 -61.9875 0
232
root 8.82317 16.1135 -4.38137 10.682 -4.16323 -7.00313
lfemur -50.0593 8.11136 -15.7172
ltibia 35.0609 0 0
lfoot -1.0862 9.12609 0
ltoes -10.2763 0 0
rfemur 20.2007 6.48477 29.6653
rtibia -3.97569e-14 0 0
rfoot -6.75436 7.39334 0
rtoes -15.3529 0 0
lowerback -9.1464 2.63411 3.38408
upperback -1.9369 3.0546 3.42773
thorax 3.10084 1.5372 2.0139
lowerneck -16.6459 -5.93501 -13.8636
upperneck 15.6314 -7.67156 15.1543
head 8.7812 -3.02968 6.53219
lclavicle 1.635e-14 -1.59028e-15 0
lhumerus -51.4008 -7.03163 92.3689
lradius 22.5514 0 0
lwrist 0.921066 0 0
lhand -7.97335 -24.1716 0
lfingers 7.12502 0 0
lthumb 17.9344 5.01938 0
rclavicle 1.635e-14 -1.59028e-15 0
rhumerus -42.8727 12.3689 -87.6596
rradius 50.1401 0 0
rwrist -24.1064 0 0
rhand -30.5087 -32.0866 0
rfingers 7.12502 0 0
rthumb -3.80863 -62.0269 0
233
root 8.85318 16.1058 -4.19701 10.7101 -4.1269 -6.7827
lfemur -50.2772 8.33886 -16.2408
ltibia 36.3794 0 0
lfoot -0.760881 8.45803 0
ltoes -9.08201 0 0
rfemur 20.7437 6.26171 29.2493
rtibia -4.87685e-14 0 0
rfoot -5.83251 7.2579 0
rtoes -15.9669 0 0
lowerback -9.14566 2.54016 3.16282
upperback -2.02099 2.95794 3.34422
thorax 3.00697 1.48706 2.03578
lowerneck -16.7179 -5.93967 -13.8969
upperneck 15.6882 -7.6738 15.1854
head 8.81659 -3.02676 6.55032
lclavicle 1.32357e-14 7.95137e-16 0
lhumerus -51.2972 -6.85774 92.0735
lradius 22.2324 0 0
lwrist 0.449508 0 0
lhand -7.68451 -24.1883 0
lfingers 7.12502 0 0
lthumb 18.2123 4.97718 0
rclavicle 1.32357e-14 7.95137e-16 0
rhumerus -43.3835 12.0622 -87.7391
rradius 49.9139 0 0
rwrist -23.9208 0 0
rhand -29.9866 -32.117 0
rfingers 7.12502 0 0
rthumb -3.3044 -62.0663 0
234
root 8.8832 16.0981 -4.01265 10.7382 -4.09056 -6.56227
lfemur -50.4952 8.56637 -16.7643
ltibia 37.6978 0 0
lfoot -0.435567 7.78996 0
ltoes -7.88769 0 0
rfemur 21.2866 6.03866 28.8334
rtibia -5.778e-14 0 0
rfoot -4.91067 7.12246 0
rtoes -16.5809 0 0
lowerback -9.14492 2.4462 2.94156
upperback -2.10508 2.86128 3.26071
thorax 2.91309 1.43693 2.05767
lowerneck -16.7898 -5.94432 -13.9302
upperneck 15.7449 -7.67604 15.2164
head 8.85198 -3.02383 6.56844
lclavicle 1.01214e-14 3.18055e-15 0
lhumerus -51.1935 -6.68385 91.7781
lradius 21.9134 0 0
lwrist -0.02205 0 0
lhand -7.39567 -24.2051 0
lfingers 7.12502 0 0
lthumb 18.4902 4.93497 0
rclavicle 1.01214e-14 3.18055e-15 0
rhumerus -43.8943 11.7555 -87.8187
rradius 49.6877 0 0
rwrist -23.7352 0 0
rhand -29.4644 -32.1474 0
rfingers 7.12502 0 0
rthumb -2.80018 -62.1058 0
